HIERARCHY
ROOT Hips
{
    OFFSET 0.000000 0.000000 0.000000
    CHANNELS 6 Xposition Yposition Zposition Zrotation Xrotation Yrotation
    JOINT Spine
    {
        OFFSET -0.000000 8.603107 0.000000
        CHANNELS 3 Zrotation Xrotation Yrotation
        JOINT Spine1
        {
            OFFSET -0.000000 23.906662 0.000000
            CHANNELS 3 Zrotation Xrotation Yrotation
            JOINT Neck
            {
                OFFSET -0.000000 23.808481 2.164407
                CHANNELS 3 Zrotation Xrotation Yrotation
                JOINT Head
                {
                    OFFSET -0.000000 14.688231 -2.098319
                    CHANNELS 3 Zrotation Xrotation Yrotation
                    End Site
                    {
                        OFFSET -0.000000 26.228985 0.000000
                    }
                }
            }
            JOINT LeftShoulder
            {
                OFFSET 4.178941 22.658146 -0.129871
                CHANNELS 3 Zrotation Xrotation Yrotation
                JOINT LeftArm
                {
                    OFFSET 9.497952 0.000000 0.000000
                    CHANNELS 3 Zrotation Xrotation Yrotation
                    JOINT LeftForeArm
                    {
                        OFFSET 38.855015 0.000000 0.000000
                        CHANNELS 3 Zrotation Xrotation Yrotation
                        JOINT LeftHand
                        {
                            OFFSET 24.940550 0.000000 0.000000
                            CHANNELS 3 Zrotation Xrotation Yrotation
                            End Site
                            {
                                OFFSET 15.737392 0.000000 0.000000
                            }
                        }
                    }
                }
            }
            JOINT RightShoulder
            {
                OFFSET -4.145384 22.658146 -0.129871
                CHANNELS 3 Zrotation Xrotation Yrotation
                JOINT RightArm
                {
                    OFFSET -9.497952 0.000000 0.000000
                    CHANNELS 3 Zrotation Xrotation Yrotation
                    JOINT RightForeArm
                    {
                        OFFSET -38.855015 0.000000 0.000000
                        CHANNELS 3 Zrotation Xrotation Yrotation
                        JOINT RightHand
                        {
                            OFFSET -24.940550 0.000000 0.000000
                            CHANNELS 3 Zrotation Xrotation Yrotation
                            End Site
                            {
                                OFFSET -15.737392 0.000000 0.000000
                            }
                        }
                    }
                }
            }
        }
    }
    JOINT LeftUpLeg
    {
        OFFSET 10.491594 0.000000 0.000000
        CHANNELS 3 Zrotation Xrotation Yrotation
        JOINT LeftLeg
        {
            OFFSET -0.000000 -46.080647 0.000000
            CHANNELS 3 Zrotation Xrotation Yrotation
            JOINT LeftFoot
            {
                OFFSET -0.000000 -50.184704 0.000000
                CHANNELS 3 Zrotation Xrotation Yrotation
                JOINT LeftToeBase
                {
                    OFFSET -0.000000 -6.819536 15.737392
                    CHANNELS 3 Zrotation Xrotation Yrotation
                    End Site
                    {
                        OFFSET -0.000000 0.000000 4.196638
                    }
                }
            }
        }
    }
    JOINT RightUpLeg
    {
        OFFSET -10.491594 0.000000 0.000000
        CHANNELS 3 Zrotation Xrotation Yrotation
        JOINT RightLeg
        {
            OFFSET -0.000000 -46.080647 0.000000
            CHANNELS 3 Zrotation Xrotation Yrotation
            JOINT RightFoot
            {
                OFFSET -0.000000 -50.184704 0.000000
                CHANNELS 3 Zrotation Xrotation Yrotation
                JOINT RightToeBase
                {
                    OFFSET -0.000000 -6.819536 15.737392
                    CHANNELS 3 Zrotation Xrotation Yrotation
                    End Site
                    {
                        OFFSET -0.000000 0.000000 4.196638
                    }
                }
            }
        }
    }
}
MOTION
Frames:    7
Frame Time:    0.008333
-0.961639    131.912613    61.671722    -12.173525    2.077988    88.585480    -6.878955    6.898380    1.456288    1.533135    -5.525379    1.115341    7.238142    5.830920    3.790383    -2.181269    -8.451262    2.777854    -2.912198    8.200598    -15.442536    -46.392582    34.977543    -11.182346    2.762019    -12.896476    -20.360657    -9.688705    -12.757798    4.173828    4.275871    8.386771    -6.051872    36.558121    47.966511    23.356352    -5.537821    -11.819664    20.443327    7.270429    -10.654072    2.968386    -4.604632    -51.542042    -2.387651    -5.402996    58.868362    -0.227307    12.038471    -16.834824    10.127259    0.000000    0.000000    0.000000    -7.738273    -33.029579    -8.317373    34.859322    79.023048    -31.202755    -11.184086    -27.849842    -15.464218    0.000000    0.000000    0.000000    
-0.621024    132.472595    61.656834    -12.079997    1.850609    88.441216    -7.017537    6.856299    1.479369    2.285792    -5.642123    1.171311    6.738070    5.821869    3.756770    -1.908614    -8.096291    2.854867    -3.432866    8.300079    -15.552201    -46.535858    34.841473    -10.932178    2.695833    -13.015039    -20.603699    -8.597532    -12.856903    4.360020    4.078137    8.681870    -6.045521    36.679523    48.178719    23.082829    -5.382907    -11.754354    19.936745    7.528129    -10.643108    2.821233    -4.263823    -50.734848    -2.127789    -5.077662    57.968643    -0.619109    12.426679    -16.137306    10.202453    0.000000    0.000000    0.000000    -7.398290    -33.897812    -7.362023    42.274075    79.561897    -37.951843    -12.239259    -28.788044    -16.263424    0.000000    0.000000    0.000000    
-0.295967    133.012848    61.648033    -11.986476    1.593461    88.329475    -6.619519    6.651403    1.381026    2.037005    -5.358668    1.091440    6.942847    6.286710    3.843416    -1.930803    -8.922325    2.936244    -3.450056    8.199839    -15.354486    -46.553932    34.674572    -10.898642    2.637633    -13.134902    -20.885361    -8.330754    -12.970862    4.362506    4.345881    8.545379    -5.687130    37.259548    48.319763    22.279087    -5.063094    -11.672189    19.401913    6.960921    -10.645886    2.952137    -3.964044    -49.938839    -1.946685    -4.711733    57.090569    -1.089736    12.785896    -15.476065    10.290986    0.000000    0.000000    0.000000    -6.942378    -34.725563    -6.780326    46.360233    79.954033    -41.285534    -12.214988    -29.537748    -16.641739    0.000000    0.000000    0.000000    
0.039410    133.559204    61.627396    -11.873101    1.445372    88.210251    -6.684134    6.541901    1.442342    2.360648    -5.249737    1.168315    6.823269    6.112648    3.878294    -1.711699    -8.567741    3.025832    -3.496319    8.411757    -15.458047    -46.597919    34.309292    -11.178391    2.606826    -13.309112    -20.871384    -8.575799    -13.134657    4.013230    4.452775    8.516746    -5.869569    37.222759    48.783932    22.049833    -4.700376    -11.700942    18.935917    7.171336    -10.764518    2.712536    -3.833160    -49.090847    -1.814810    -4.276539    56.167652    -1.610865    12.986956    -14.802486    10.379154    0.000000    0.000000    0.000000    -6.528841    -35.394672    -6.321090    47.417763    80.141159    -42.045681    -12.497649    -30.472883    -16.584965    0.000000    0.000000    0.000000    
0.395842    134.100067    61.625683    -11.740133    1.157569    88.106499    -6.674681    6.200579    1.482722    2.919829    -4.595715    1.238195    6.657330    5.695338    3.929772    -1.730311    -8.296026    3.069847    -3.596822    8.192338    -15.414258    -46.742100    34.314884    -11.375883    2.511504    -13.590044    -21.298632    -8.229138    -13.418523    4.112556    4.155441    8.518983    -6.261889    37.061298    49.020958    22.486483    -4.354847    -11.581461    18.326069    7.417036    -10.718075    2.727675    -3.532419    -48.217922    -1.739349    -4.029679    55.276070    -1.918559    13.178326    -14.267349    10.468047    0.000000    0.000000    0.000000    -5.919888    -36.032730    -5.484856    48.244957    79.872528    -42.831913    -12.681327    -31.114237    -16.396275    0.000000    0.000000    0.000000    
0.718210    134.657806    61.609024    -11.605038    0.996538    88.074997    -6.604987    6.350097    1.514243    3.022346    -5.011339    1.279945    7.053226    6.309036    3.930218    -2.221427    -8.590384    2.960636    -3.691391    8.504044    -15.717477    -46.993134    34.121349    -11.236089    2.644235    -13.968420    -21.238148    -8.497828    -13.728220    3.343932    4.549000    8.929121    -6.122159    37.260368    49.057148    21.934807    -3.976358    -11.478393    17.730682    7.113793    -10.708594    2.631863    -3.434081    -47.303303    -1.680042    -3.710372    54.266060    -2.451221    13.401306    -13.639763    10.696465    0.000000    0.000000    0.000000    -5.506581    -36.636517    -5.131027    46.377369    79.674484    -40.852921    -12.313132    -31.661024    -16.093559    0.000000    0.000000    0.000000    
1.050614    135.213562    61.606651    -11.485270    0.779606    88.028976    -6.299279    6.177418    1.484679    2.844465    -4.726460    1.261999    7.298827    6.137980    3.981112    -2.273001    -8.263145    2.974778    -3.507635    8.624695    -15.750233    -47.089565    33.974850    -11.398418    2.646129    -14.189219    -21.629299    -8.167027    -13.935761    3.421088    4.815684    8.742513    -6.005636    37.676296    49.422550    21.396635    -3.710134    -11.476956    17.154886    7.075082    -10.778758    2.448955    -3.323419    -46.444950    -1.747691    -3.416704    53.338554    -2.811077    13.354796    -13.075005    10.867100    0.000000    0.000000    0.000000    -4.980855    -37.222786    -4.709774    43.007801    79.170418    -37.581631    -11.962729    -32.133091    -15.699634    0.000000    0.000000    0.000000    
